#!OML:ASF E:/inclinewalkrobotboard/Project1/Captureday1/Session1/subject1.ASF
:FULLY-SPECIFIED
:DEGREES
176
root 0 0 0 2.0826288282540633 1.2260440725325865 -1.0168965608814227
lowerback 10.9878112343133 -0.29612778426622854 -2.2891958747203054
upperback 2.0030887305407563 -0.6956444298972888 1.1012347525657245
thorax -3.9405468584911523 -0.2546195619508088 2.419811933252553
lowerneck -6.57587396324509 -1.9698099098817177 -0.17433617262502232
upperneck 24.513559099123714 -3.0555756682752464 2.3778251191371793
head 9.25109020106364 -1.2777679475516142 0.5882951338466378
rclavicle 5.19090919863026E-15 2.6446700959934922E-15
rhumerus -8.313918786301526 13.799195701156616 -50.82750325664135
rradius 106.57315472690838
rwrist -42.53604416161623
rhand -4.098842777020646 -54.647172289230575
rfingers 7.125020000000007
rthumb 21.668855010196474 -83.25911063302958
lclavicle 1.8199433672460684E-15 3.834025877510185E-15
lhumerus -44.48352708538512 -7.5224101333793705 85.38676315387544
lradius 61.862991924412626
lwrist 7.193331488309843
lhand -11.690459097393443 -28.960630063656986
lfingers 7.125020000000018
lthumb 14.363028258124963 0.5986494092606591
rfemur 1.2195309790665574 -0.5324347624108929 -2.9980284673765727
rtibia -4.626299281586498
rfoot 0.9133110606792361 0.6550269005293567
rtoes -0.7463268933103893
lfemur 0.871041197890615 -6.45024175910053 -10.191495788218976
ltibia 22.3093216441666
lfoot -28.196386721734548 14.335539317755268
ltoes -60.040780101183
177
root 0 0 0 2.081718917860647 1.225555576392023 -1.0161242799722943
lowerback 10.985975509350403 -0.2964559724979766 -2.2896424857015703
upperback 2.0015308596706576 -0.696123104634023 1.1014404962379323
thorax -3.9412131173555087 -0.2548294230773589 2.4203795250550844
lowerneck -6.578262517818501 -1.969472194049465 -0.1745081781363833
upperneck 24.5171649374799 -3.0551224303887197 2.3774052873466864
head 9.25268074715003 -1.2775362343794876 0.5881634587841734
rclavicle 5.194150773561588E-15 2.6382533270517046E-15
rhumerus -8.315481336990388 13.791480358486059 -50.82553920860866
rradius 106.56371068495095
rwrist -42.54011775821265
rhand -4.096829092971266 -54.65048847397714
rfingers 7.125020000000007
rthumb 21.67078624531522 -83.26228547071804
lclavicle 1.8226465778996097E-15 3.827232977169787E-15
lhumerus -44.484725517498404 -7.521334574760785 85.38603737436053
lradius 61.86250091602187
lwrist 7.192568399124907
lhand -11.690132205603657 -28.961332120817147
lfingers 7.125020000000018
lthumb 14.363359494092434 0.5979456588678431
rfemur 1.2198634314181662 -0.5326893131539507 -2.99888375456794
rtibia -4.626858440884526
rfoot 0.9139420824798137 0.655326116042326
rtoes -0.7462233978798689
lfemur 0.8718049337391891 -6.450442089895663 -10.19310565412858
ltibia 22.310074398284847
lfoot -28.1943895364446 14.333721002986593
ltoes -60.033603784335185
178
root 0 0 0 2.0813283302414596 1.2243607592574053 -1.0184822878030717
lowerback 10.988769949412092 -0.29531663997320534 -2.2882201172861816
upperback 2.0065044241958985 -0.6944277059085642 1.1016102109617365
thorax -3.937401918709848 -0.2540193085320174 2.4195927191375937
lowerneck -6.569076812553034 -1.9702838734814294 -0.17376680688298474
upperneck 24.50985416516711 -3.0561599570548066 2.3796352462582755
head 9.248657554124938 -1.2780411854609548 0.5888688530192174
rclavicle 5.153654112993311E-15 2.6875707475073154E-15
rhumerus -8.340486350400521 13.813933421068779 -50.848340027561036
rradius 106.57265769334438
rwrist -42.519808480352516
rhand -4.105625575130178 -54.633777350624065
rfingers 7.125020000000007
rthumb 21.662303621624883 -83.24501753725838
lclavicle 1.7743795846436383E-15 3.8557075576E-15
lhumerus -44.474145807879864 -7.5279408417232165 85.39410839990515
lradius 61.861773026341666
lwrist 7.195530832389782
lhand -11.692394652257207 -28.956371121207624
lfingers 7.125020000000018
lthumb 14.361141190644567 0.6023217213662484
rfemur 1.2207489277342782 -0.5324512123332661 -2.997722073833282
rtibia -4.626201488281957
rfoot 0.9132304048378277 0.6552631860738551
rtoes -0.7460564004751633
lfemur 0.8602971684588949 -6.442944485568873 -10.185720808043467
ltibia 22.31233734489672
lfoot -28.19696016813693 14.335740810440676
ltoes -60.05960712947703
179
root 0 0 0 2.0826579570778745 1.2260664888139918 -1.0174755801217934
lowerback 10.988199066810868 -0.29580577924963725 -2.2888369912878135
upperback 2.004359804875539 -0.6951697028961106 1.1012060714582839
thorax -3.9393879916284336 -0.25439645410497613 2.419531326228413
lowerneck -6.57366644753594 -1.970091111087141 -0.17434065428813628
upperneck 24.512267782791476 -3.0559994767244274 2.3786553507372794
head 9.250263212036474 -1.2779469018012328 0.5885692557654696
rclavicle 5.18110725204468E-15 2.6493513605287097E-15
rhumerus -8.317767208189057 13.807089937263328 -50.834121795088464
rradius 106.57511300810464
rwrist -42.53085275003539
rhand -4.100368764080342 -54.64294178218587
rfingers 7.125020000000007
rthumb 21.667387647476783 -83.25492254694504
lclavicle 1.8072052544717256E-15 3.8411192126831665E-15
lhumerus -44.480596577405514 -7.52445981520281 85.38872398911843
lradius 61.86330825696186
lwrist 7.194617107148204
lhand -11.691185868274516 -28.959123762849373
lfingers 7.125020000000018
lthumb 14.362262847506601 0.6001367843720189
rfemur 1.2187030873525275 -0.5321041587849198 -2.996301641692158
rtibia -4.623803860643157
rfoot 0.9127002303126961 0.6545895529101107
rtoes -0.7460444725367805
lfemur 0.8687242566037918 -6.448406906832142 -10.18944001322459
ltibia 22.309869852967868
lfoot -28.19733772960749 14.336350966480252
ltoes -60.04906203941416
